#N canvas 805 86 450 300 12;
#X obj 77 266 dac~;
#X obj 150 -54 adc~;
#X obj 330 52 unpack;
#X floatatom 205 49 7 0 0 0 - - - 0;
#X floatatom 353 96 7 0 0 0 - - - 0;
#X msg 277 -49 auto 1;
#X obj 172 94 mtof;
#X obj 261 12 fiddle~ 2048;
#X obj 306 166 *;
#X obj 108 225 *~;
#X obj 106 184 phasor~;
#X msg 361 162 0.0005;
#X connect 1 1 7 0;
#X connect 2 0 3 0;
#X connect 2 1 4 0;
#X connect 3 0 6 0;
#X connect 4 0 8 0;
#X connect 5 0 7 0;
#X connect 6 0 10 0;
#X connect 7 2 2 0;
#X connect 8 0 9 1;
#X connect 9 0 0 1;
#X connect 10 0 9 0;
#X connect 11 0 8 1;
